Motion_mu02
version=1
nRows=12
nColumns=43
inDegrees=yes
endheader
time	pelvis_tilt	pelvis_list	pelvis_rotation	pelvis_tx	pelvis_ty	pelvis_tz	hip_flexion_r	hip_adduction_r	hip_rotation_r	knee_angle_r	ankle_angle_r	subtalar_angle_r	mtp_angle_r	hip_flexion_l	hip_adduction_l	hip_rotation_l	knee_angle_l	ankle_angle_l	subtalar_angle_l	mtp_angle_l	lumbar_extension	lumbar_bending	lumbar_rotation	neck_flexion	neck_lateral_bending	neck_rotation	arm_flex_r	arm_add_r	arm_rot_r	elbow_flex_r	pro_sup_r	wrist_flex_r	wrist_dev_r	hand_finger_flex_r	arm_flex_l	arm_add_l	arm_rot_l	elbow_flex_l	pro_sup_l	wrist_flex_l	wrist_dev_l	hand_finger_flex_l
      2.43500000	     -3.11457369	     36.89579406	    -93.36752871	      0.00135981	      1.90061918	      0.99248075	     39.10387695	    -10.40858476	    -10.19529460	    -57.26919117	    -14.72933349	     -7.19494956	    -12.08719635	     47.57346312	     -2.02275861	      0.96355116	    -61.61934816	     19.42407594	     12.11877944	    -28.54546698	    -18.70510597	      1.77328063	      8.48566474	     18.62243711	     -3.57368010	     10.73542445	   -216.84072833	   -151.21329079	   -191.04011696	    104.91247479	    169.28151609	    -55.11646257	    -15.41767965	     90.00021046	   -204.63870150	    216.30309609	   -169.11666812	    105.00666184	    165.27199173	    -67.33207288	      4.72514319	     90.00021046
      2.43750000	     -3.10984620	     37.00891169	    -93.33943899	      0.00126193	      1.90178542	      0.99275194	     39.00755716	    -10.30339829	    -10.02639953	    -57.26577946	    -14.68193285	     -7.18952291	    -12.07660219	     47.33319530	     -2.07863069	      0.93328653	    -61.26445256	     19.39656217	     12.13377316	    -28.55418606	    -18.50101542	      1.77850550	      8.50160884	     18.45412495	     -3.61696434	     10.78322201	   -216.57150275	   -151.32851132	   -190.91092317	    104.50729265	    169.29196091	    -55.16314415	    -15.41732905	     90.00021046	   -204.31532993	    216.22026498	   -168.91244751	    104.54813024	    165.23926447	    -67.42034217	      4.68405738	     90.00021046
      2.44000000	     -3.05580240	     37.15729984	    -93.35571507	      0.00138872	      1.90294480	      0.99291153	     38.96795353	    -10.16145937	     -9.63896486	    -57.21600597	    -14.63112495	     -7.23224134	    -12.06857462	     47.12804128	     -2.08560876	      0.86248092	    -60.86037060	     19.37246499	     12.17106823	    -28.56715175	    -18.23213524	      1.75909235	      8.56698387	     18.02509439	     -3.65889777	     10.87489965	   -216.34782091	   -151.31981807	   -190.77086433	    104.10365080	    169.29103044	    -55.28081516	    -15.41607352	     90.00021046	   -203.87357995	    216.14692337	   -168.57222312	    104.11013711	    165.18087592	    -67.63015571	      4.58443721	     90.00021046
      2.44250000	     -2.95226572	     37.34703824	    -93.44253678	      0.00127304	      1.90393338	      0.99311751	     39.08743050	     -9.97079442	     -9.08024857	    -57.33932009	    -14.69467590	     -7.41437101	    -12.08743611	     47.00577324	     -2.13670948	      0.69306329	    -60.58105943	     19.36106988	     12.22153735	    -28.59346551	    -17.87709964	      1.67446198	      8.76203454	     17.39441141	     -3.70198640	     10.96180202	   -216.23993018	   -151.52996979	   -190.77855873	    103.66053777	    169.24401047	    -55.60659052	    -15.39592068	     90.00021046	   -203.35330038	    216.14610902	   -168.12687961	    103.52819774	    164.97945089	    -68.24312886	      4.34129182	     90.00021046
      2.44500000	     -2.96591408	     37.42473011	    -93.36204450	      0.00129564	      1.90514561	      0.99335871	     39.02497043	     -9.79914769	     -8.74973542	    -57.40269095	    -14.71735894	     -7.49354281	    -12.09948857	     46.71353436	     -2.16047278	      0.70774867	    -60.14438140	     19.32693441	     12.23993226	    -28.60484781	    -17.72449122	      1.71055500	      8.74023195	     17.32887682	     -3.75293087	     10.96400591	   -215.96883139	   -151.54149429	   -190.60790101	    103.30095491	    169.28490127	    -55.65299473	    -15.42061550	     90.00021046	   -203.00060700	    216.04132711	   -167.88815208	    103.12716271	    164.92323102	    -68.35813798	      4.25356554	     90.00021046
      2.44750000	     -2.92358004	     37.52163205	    -93.36090089	      0.00128728	      1.90631685	      0.99363990	     38.99144324	     -9.61124282	     -8.30070954	    -57.44961795	    -14.75696339	     -7.63983894	    -12.12346215	     46.44231907	     -2.18607639	      0.63165468	    -59.73794852	     19.30840802	     12.26453235	    -28.61674478	    -17.50837728	      1.68337389	      8.78519788	     16.96355099	     -3.79594940	     11.02147672	   -215.71691929	   -151.59243354	   -190.48095992	    102.86962763	    169.32240731	    -55.73087448	    -15.44327545	     90.00021046	   -202.60827986	    215.95971236	   -167.62309735	    102.67243771	    164.84989404	    -68.52744025	      4.13219220	     90.00021046
      2.45000000	     -2.84176590	     37.69488594	    -93.43480984	      0.00114807	      1.90737930	      0.99392134	     39.02820305	     -9.45918917	     -7.93425209	    -57.45979769	    -14.88656728	     -7.93676568	    -12.19141269	     46.28558600	     -2.24997032	      0.47814750	    -59.41374221	     19.29605677	     12.29697855	    -28.64122077	    -17.16286148	      1.61414691	      8.96433945	     16.27876267	     -3.82692074	     11.10276476	   -215.56436077	   -151.78409566	   -190.46286509	    102.39893017	    169.33422397	    -55.97251975	    -15.48681126	     90.00021046	   -202.10661802	    215.93342051	   -167.19100856	    102.08895260	    164.65390832	    -69.01389764	      3.83272804	     90.00021046
      2.45250000	     -2.88444111	     37.79987254	    -93.35434248	      0.00111598	      1.90864093	      0.99422984	     38.89148219	     -9.37927696	     -7.91742622	    -57.38298801	    -14.87402380	     -7.96846160	    -12.20072091	     46.02113524	     -2.32078930	      0.45667605	    -58.97792999	     19.26386117	     12.29813133	    -28.64886201	    -16.97898866	      1.66718579	      8.96321615	     16.27884487	     -3.86919758	     11.10763742	   -215.28698862	   -151.84267466	   -190.32329273	    101.99443798	    169.37530753	    -55.97572059	    -15.51346083	     90.00021046	   -201.79614250	    215.80053593	   -167.02661007	    101.64295711	    164.61756649	    -69.03742335	      3.78096857	     90.00021046
      2.45500000	     -2.92644113	     37.98151196	    -93.28625124	      0.00119719	      1.90986138	      0.99456045	     38.69752035	     -9.37199716	     -8.13116952	    -57.07952361	    -14.79792228	     -8.05866993	    -12.22856600	     45.85681845	     -2.38704029	      0.44112811	    -58.57776812	     19.21227265	     12.30918466	    -28.67421219	    -16.61962953	      1.73420030	      9.09433407	     15.49700051	     -3.91102821	     11.18748023	   -215.08494838	   -151.91862516	   -190.24375260	    101.47483429	    169.40898886	    -56.16249036	    -15.60962579	     90.00021046	   -201.25090419	    215.71713537	   -166.53268435	    101.05620355	    164.46816137	    -69.39350469	      3.49598668	     90.00021046
      2.45750000	     -2.95645003	     38.14644917	    -93.26118269	      0.00123693	      1.91115631	      0.99492246	     38.45166776	     -9.37423722	     -8.36217022	    -56.69697210	    -14.72648768	     -8.03966994	    -12.22822780	     45.62688315	     -2.47358263	      0.39032729	    -58.09872691	     19.18758537	     12.30065636	    -28.68172957	    -16.35689888	      1.78170950	      9.15104869	     15.47128749	     -3.95210811	     11.19812508	   -214.81870097	   -151.97090265	   -190.10945627	    101.01350226	    169.44735082	    -56.17171824	    -15.64851194	     90.00021046	   -200.91297782	    215.52738519	   -166.35114753	    100.53170276	    164.42384517	    -69.42055479	      3.43649623	     90.00021046
      2.46000000	     -3.10508115	     38.33714719	    -93.05899876	      0.00141560	      1.91242468	      0.99530829	     38.11940245	     -9.48816726	     -9.06462536	    -56.25237210	    -14.48030001	     -7.92511339	    -12.20495388	     45.49466139	     -2.55320445	      0.48305456	    -57.71381952	     19.12826252	     12.28356612	    -28.70628545	    -15.98463916	      1.95183823	      9.24303889	     14.69914686	     -3.99531577	     11.27002851	   -214.60906226	   -152.04626256	   -190.05200341	    100.45978686	    169.45614133	    -56.34003971	    -15.76102297	     90.00021046	   -200.36429261	    215.42677456	   -165.84275956	     99.92277050	    164.29813595	    -69.71619009	      3.17683953	     90.00021046
      2.46250000	     -3.15798951	     38.53220157	    -92.96980825	      0.00168948	      1.91371639	      0.99570682	     37.79255113	     -9.55779752	     -9.47281250	    -55.71376326	    -14.32075960	     -7.82456459	    -12.18380294	     45.29624804	     -2.61102812	      0.43981525	    -57.19645342	     19.10342812	     12.26400430	    -28.71753023	    -15.66064555	      2.04780513	      9.28559655	     14.52053279	     -4.03715851	     11.28512625	   -214.38362978	   -152.04206028	   -189.92556205	     99.98659646	    169.47911188	    -56.39390647	    -15.82974118	     90.00021046	   -199.96668044	    215.22287858	   -165.54140512	     99.34263067	    164.23079250	    -69.80826234	      3.06320097	     90.00021046
